<?xml version="1.0" encoding="UTF-8"?>
<svg version="1.1" xmlns="http://www.w3.org/2000/svg" width="48" height="48">
<path d="M0 0 C1.67334039 0.98879205 3.34151823 1.98648336 5 3 C7.7004039 2.35336433 7.7004039 2.35336433 10 1 C13.45739557 -0.72869779 17.21975568 -0.48966895 21 0 C23.87029869 1.79393668 25.49131638 2.98263276 27 6 C27.63960716 11.14831336 27.45480222 15.63705 24.53515625 20.10546875 C20.00200334 25.69981776 14.67400506 32.02471835 8 35 C2.53401881 35.0291519 -0.39581487 32.40288467 -4.125 28.75 C-4.63675781 28.27175781 -5.14851562 27.79351562 -5.67578125 27.30078125 C-10.88691501 22.35757211 -15.0691629 18.13002838 -15.3125 10.625 C-15.28397445 7.12206214 -15.05857097 6.09371356 -13.125 3 C-9.16091161 -0.73090672 -5.24127248 -0.5651459 0 0 Z " fill="#EC3745" transform="translate(18,7)"/>
</svg>
